<svg xmlns="http://www.w3.org/2000/svg" viewBox="0 0 512 512" id="online-portfolio"><g><polygon fill="#fedb41" points="482.32 333.43 482.32 403.43 316 403.43 196 403.43 29.68 403.43 29.68 333.43 482.32 333.43"></polygon><path fill="#00efd1" d="M482.32,37.24V333.43H29.68V37.24ZM242.06,275.76V104.24H75.03V275.76Z"></path><polygon fill="#00acea" points="316 403.43 336 474.76 176 474.76 196 403.43 316 403.43"></polygon><path fill="#00acea" d="M242.06,104.24V275.76H75.03V104.24ZM205.1,250.52V216.4a22.44,22.44,0,0,0-22.44-22.45,29.913,29.913,0,0,1-48.24,0,22.446,22.446,0,0,0-22.44,22.45v34.12Zm-21.62-96.1a24.94,24.94,0,1,0-24.94,24.94A24.932,24.932,0,0,0,183.48,154.42Z"></path><path fill="#fedb41" d="M205.1,216.4v34.12H111.98V216.4a22.446,22.446,0,0,1,22.44-22.45,29.913,29.913,0,0,0,48.24,0A22.44,22.44,0,0,1,205.1,216.4Z"></path><circle cx="158.54" cy="154.42" r="24.94" fill="#fedb41"></circle></g><g><g><g><path fill="#083863" d="M482.32,29H29.68C25.262,29,22,32.822,22,37.24V403.43A7.376,7.376,0,0,0,29.68,411H185.448l-15.513,56H142.47a8,8,0,0,0,0,16H369.53a8,8,0,0,0,0-16H342.065l-15.513-56H482.32a7.376,7.376,0,0,0,7.68-7.57V37.24C490,32.822,486.738,29,482.32,29ZM325.448,467h-138.9l15.513-56h107.87ZM474,395H38V341H474ZM38,325V45H474V325Z"></path><path fill="#083863" d="M158.54,187.36a32.94,32.94,0,1,0-32.94-32.94A32.978,32.978,0,0,0,158.54,187.36Zm0-49.88a16.94,16.94,0,1,1-16.94,16.94A16.959,16.959,0,0,1,158.54,137.48Z"></path><path fill="#083863" d="M111.98,259H205.1c4.418,0,7.9-4.062,7.9-8.48V216.4a30.437,30.437,0,0,0-30.39-30.45,7.952,7.952,0,0,0-6.425,3.268,21.883,21.883,0,0,1-35.325-.006,7.978,7.978,0,0,0-6.433-3.262A30.468,30.468,0,0,0,104,216.4v34.12C104,254.938,107.562,259,111.98,259ZM120,216.4a14.464,14.464,0,0,1,11.046-14.049,37.69,37.69,0,0,0,54.951,0A14.428,14.428,0,0,1,197,216.4V243H120Z"></path><path fill="#083863" d="M250,104a8,8,0,0,0-8-8H75a8,8,0,0,0-8,8V276a8,8,0,0,0,8,8H242a8,8,0,0,0,8-8ZM234,268H83V112H234Z"></path><path fill="#083863" d="M269.94 151h88.2a8 8 0 0 0 0-16h-88.2a8 8 0 0 0 0 16zM269.94 198H436.97a8 8 0 0 0 0-16H269.94a8 8 0 0 0 0 16zM436.97 229H269.94a8 8 0 0 0 0 16H436.97a8 8 0 0 0 0-16z"></path></g></g></g></svg>